<svg width="1728" height="1117" viewBox="0 0 1728 1117" fill="none" xmlns="http://www.w3.org/2000/svg">
<g opacity="0.03">
<path d="M654.28 121.142L699.976 105.798L744.566 94.5458L772.438 88.9076L808.12 84.3676L837.115 82.073L872.805 81.2509L918.168 83.3818L960.936 88.8645L992.924 95.4863L1014.5 100.644L1040.54 108.022L1066.96 116.515L1089.65 125.017L1108.63 133.526L1154.79 156.475L1165.58 162.772L1184.2 173.885L1206.54 188.707L1232.98 208.354L1262.4 233.199L1284.01 253.228L1311.22 282.54L1334.33 310.745L1357.82 343.782L1376.85 374.599L1396.64 411.363L1417.19 457.791L1423.92 474.135L1435.52 508.686L1443.02 538.413L1449.79 573.346L1455.46 616.089L1457.76 648.802L1457.5 699.738L1454.24 738.039L1451.31 758.866L1446.55 788.991L1438.81 821.354L1431.06 846.281L1423.67 868.605L1416.28 887.211L1410.36 902.839L1401.48 920.704L1396.67 932.24L1387.05 951.594L1380.75 962.39L1372.97 976.164L1359.63 995.526L1347.4 1014.51L1330.35 1037.6L1312.55 1058.46L1288.07 1085.28L1262.85 1109.88L1234.64 1132.99L1188.98 1166.92L1160.02 1184.09L1117.69 1205.75L1095.77 1214.35L1106.57 1220.64L1124.06 1228.41L1135.59 1233.22L1150.11 1239.51L1161.64 1244.32L1180.62 1252.83L1192.16 1257.63L1250.21 1282.79L1261.75 1287.6L1279.24 1295.37L1293.75 1301.65L1309.38 1307.57L1322.78 1314.23L1334.32 1319.04L1348.83 1325.33L1360.37 1330.14L1379.35 1338.64L1390.88 1343.45L1406.89 1350.48L1418.42 1355.29L1437.4 1363.8L1457.5 1371.93L1477.97 1381.18L1489.5 1385.99L1506.99 1393.76L1518.53 1398.57L1536.02 1406.34L1547.56 1411.15L1565.05 1418.91L1576.58 1423.72L1594.07 1431.49L1608.59 1437.78L1620.12 1442.59L1637.62 1450.36L1649.15 1455.16L1666.64 1462.93L1678.18 1467.74L1692.69 1474.03L1710.18 1481.8L1721.72 1486.61L1736.23 1492.9L1747.77 1497.7L1751.48 1493.98L1759.99 1475L1766.28 1460.48L1777.75 1435.55L1780.33 1428.48L1779.59 1426.25L1763.96 1420.34L1742 1410.35L1727.49 1404.06L1708.51 1395.55L1696.97 1390.74L1682.46 1384.45L1663.48 1375.94L1648.96 1369.65L1628.87 1361.52L1616.96 1355.6L1605.42 1350.79L1587.93 1343.02L1576.4 1338.21L1541.41 1322.67L1519.83 1313.8L1496.38 1303.07L1481.87 1296.78L1470.33 1291.97L1455.82 1285.68L1438.33 1277.91L1422.33 1270.88L1410.79 1266.08L1396.28 1259.79L1374.32 1249.8L1358.69 1243.88L1333.76 1232.41L1314.78 1223.9L1294.68 1215.77L1287.6 1209.46L1285.35 1199.06L1288.68 1190.5L1292.39 1186.77L1301.3 1183.78L1313.58 1187.1L1325.49 1193.02L1337.03 1197.83L1354.52 1205.6L1369.03 1211.89L1388.01 1220.4L1404.01 1227.43L1415.55 1232.23L1437.51 1242.22L1452.02 1248.51L1469.51 1256.28L1481.05 1261.09L1503 1271.08L1517.52 1277.37L1533.52 1284.4L1545.06 1289.2L1569.99 1300.67L1584.51 1306.96L1596.04 1311.77L1618 1321.76L1635.49 1329.53L1650 1335.82L1661.54 1340.63L1683.5 1350.62L1698.01 1356.9L1714.01 1363.93L1725.55 1368.74L1763.51 1385.76L1775.05 1390.57L1794.03 1399.08L1808.54 1405.37L1815.24 1410.56L1818.6 1416.87L1816.02 1427.66L1808.63 1446.26L1800.86 1463.75L1796.05 1475.29L1787.54 1494.27L1781.25 1508.78L1775.34 1524.41L1770.16 1534.83L1765.35 1546.37L1757.58 1563.86L1751.67 1579.49L1745.74 1591.4L1740.94 1602.93L1733.17 1620.43L1728.36 1631.96L1722.8 1641.27L1713.51 1643.15L1704.21 1641.31L1697.14 1635.01L1694.89 1628.32L1699.69 1613.06L1708.94 1592.6L1713.75 1581.06L1722.26 1562.08L1727.07 1550.54L1733.35 1536.03L1734.09 1530.82L1728.88 1530.09L1708.41 1520.84L1696.87 1516.03L1667.85 1503.46L1647.38 1494.21L1635.84 1489.4L1606.82 1476.82L1589.32 1469.05L1573.7 1463.14L1558.81 1455.74L1547.27 1450.93L1531.27 1443.9L1519.73 1439.09L1505.22 1432.8L1483.26 1422.81L1467.63 1416.9L1442.7 1405.43L1428.19 1399.14L1408.09 1391L1383.16 1379.53L1368.64 1373.24L1357.11 1368.44L1339.61 1360.67L1325.1 1354.38L1309.1 1347.35L1297.56 1342.54L1283.05 1336.25L1262.58 1327L1246.95 1321.09L1222.02 1309.62L1204.53 1301.85L1188.9 1295.94L1175.5 1289.27L1163.96 1284.47L1146.47 1276.7L1130.84 1270.78L1117.44 1264.12L1105.91 1259.31L1089.9 1252.28L1078.37 1247.48L1043.39 1231.94L1037.06 1227.86L1035.19 1226.01L1032.2 1217.09L1034.78 1206.3L1041.46 1200.34L1075.63 1187.62L1109.06 1172.68L1134.31 1159.24L1168.48 1139.09L1195.57 1120.06L1216.36 1104.4L1244.19 1080.18L1260.14 1064.9L1280.91 1041.8L1300.57 1019.08L1319.47 994.127L1334.3 971.787L1343.19 957.64L1354.67 936.422L1363.93 919.671L1375.77 895.851L1380.58 884.315L1388.71 864.22L1396.84 840.408L1403.85 816.97L1411.96 782.003L1418.93 739.976L1422.19 701.674L1422.86 666.725L1421.28 628.806L1416.36 588.291L1408.84 547.411L1401.71 518.799L1390.48 485.362L1372.92 444.132L1356.86 411.078L1335.58 373.575L1318.05 347.216L1293.81 315.667L1269.96 288.951L1255.06 274.112L1234.94 254.823L1210.73 234.428L1190.99 219.972L1174.98 209.225L1157.48 197.738L1137.38 185.885L1123.6 178.108L1098.29 165.523L1086.76 160.715L1069.27 152.946L1045.46 144.819L1027.22 138.538L995.975 130.428L963.987 123.806L924.937 118.315L888.124 115.794L843.51 115.892L813.026 117.446L782.177 121.604L746.129 128.747L718.631 135.5L697.081 141.496L678.133 147.858L644.331 161.689L607.933 178.871L578.597 194.923L548.155 215.066L515.492 239.676L487.661 263.904L462.433 288.497L441.664 311.594L424.978 332.079L410.522 351.816L399.775 367.827L390.883 381.974L381.625 398.725L375.329 409.521L360.523 439.297L355.715 450.833L347.946 468.324L340.925 488.044L334.645 506.276L323.581 547.197L319.164 567.283L312.567 610.426L309.305 648.727L309.403 693.342L312.462 732.001L316.62 762.85L323.763 798.898L327.888 814.876L680.799 1865.89L774.795 1835.57L781.117 1835.93L788.935 1840.75L793.418 1850.4L791.579 1859.7L788.244 1864.54L785.274 1866.78L735.494 1884.73L574.999 1938.62L564.594 1940.88L556.41 1938.67L551.569 1935.33L549.332 1932.36L536.242 1897.07L202.043 901.78L199.041 889.146L203.849 877.61L208.673 873.51L219.452 872.371L228.759 877.927L230.622 879.782L574.177 1902.93L648.478 1876.75L293.687 816.439L286.926 785.223L280.515 743.969L276.707 703.08L275.877 663.672L277.658 628.348L281.302 594.879L286.435 562.15L293.431 531.276L301.916 501.143L307.456 484.4L314.477 464.68L320.765 450.166L325.573 438.63L331.862 424.116L343.332 399.181L349.629 388.385L354.811 377.964L363.703 363.816L373.335 348.18L397.057 315.41L414.483 293.436L435.993 268.851L457.136 246.869L476.059 229.353L509.088 202.14L539.157 180.881L568.859 162.226L598.195 146.175L626.05 133.101L654.28 121.142Z" fill="#F5F5F5"/>
<path d="M639.155 5.92008L663.675 -2.31327L701.203 -12.4342L733.533 -19.5694L771.07 -25.9724L808.241 -29.7721L843.556 -31.7088L877.017 -31.7824L913.456 -30.3755L948.04 -27.1055L969.981 -24.5513L994.9 -20.5164L1030.98 -12.7882L1047.35 -8.36279L1074.88 -0.244011L1098.69 7.88295L1121.39 16.3842L1141.48 24.5193L1163.44 34.5093L1180.93 42.2784L1223.37 65.236L1237.51 74.1278L1253.15 83.7599L1277.35 100.437L1295.6 114.153L1314.22 128.984L1340.3 151.234L1367.87 177.942L1395.08 207.254L1418.19 235.459L1438.32 262.183L1465.93 303.763L1487.58 342.381L1503.64 375.435L1518.96 409.978L1526.06 427.437L1534.29 451.957L1530.6 463.118L1525.77 467.219L1515.37 469.472L1508.3 466.885L1504.2 462.061L1490.38 431.977L1469.08 383.319L1451.15 348.41L1430.63 313.135L1406.01 276.754L1381.77 245.205L1359.41 219.229L1316.56 176.568L1293.84 156.913L1275.22 142.082L1255.48 127.626L1234.63 113.544L1214.15 100.576L1195.54 89.4636L1185.11 84.2814L1174.32 77.9848L1147.52 64.6593L1135.98 59.8515L1119.98 52.8227L1104.35 46.9084L1084.63 39.8878L1058.22 31.3948L1009.11 18.1184L973.406 11.5048L944.77 7.47816L906.468 4.21635L870.03 2.80939L835.454 3.25728L791.962 6.69912L751.822 12.7361L723.95 18.3743L680.475 29.2519L656.695 35.9964L646.29 38.2501L636.983 32.6937L632.875 24.1516L633.598 15.2271L637.3 7.78311L639.155 5.92008Z" fill="#7C7C7C"/>
<path d="M1293.5 510.486L1303.53 507.118L1310.23 508.59L1316.56 512.666L1318.42 514.521L1327.77 542.384L1336.41 579.173L1341.69 613.366L1345.11 649.422L1345.19 686.6L1342.66 719.695L1339.01 749.447L1331.28 785.527L1325.75 805.988L1318.37 828.311L1312.45 843.94L1304.32 864.034L1282.85 907.209L1273.96 921.357L1267.66 932.152L1254.32 951.515L1241.34 968.274L1225.4 987.27L1205.37 1008.88L1174.2 1037.95L1147.48 1058.08L1118.15 1077.85L1086.96 1095.77L1063.56 1107.34L1023.07 1123.42L741.091 1218.1L732.166 1217.38L725.837 1213.3L721.736 1208.48L719.857 1199.19L723.184 1190.63L726.894 1186.9L1030.79 1083.62L1066.45 1067.93L1094.67 1052.25L1119.17 1036.58L1156.66 1007.87L1181.15 984.765L1198.58 966.509L1217.86 942.672L1227.13 929.639L1241.21 908.788L1250.1 894.64L1260.1 876.401L1274.17 848.114L1280.08 832.485L1286.74 815.368L1294.49 790.441L1299.28 771.47L1305.16 740.97L1309.91 703.409L1310.95 669.574L1309.39 635.372L1305.98 606.752L1299.59 572.933L1291.34 540.977L1287.59 526.114L1288.68 518.304L1293.5 510.486Z" fill="#F5F5F5"/>
<path d="M692.062 226.275L721.04 216.545L731.088 220.612L732.951 222.467L737.067 234.727L733.74 243.286L725.946 249.623L677.289 270.922L648.693 285.485L617.876 304.514L591.892 323.161L568.886 343.288L545.513 366.019L526.598 387.252L508.432 410.715L495.09 430.078L483.237 450.18L476.941 460.976L458.433 498.196L452.519 513.824L443.652 539.125L434.801 571.862L430.017 594.552L425.25 624.677L423.445 648.848L422.77 680.08L424.698 711.677L429.613 748.474L436.373 779.689L445.738 811.271L445.762 822.424L440.946 830.243L432.404 834.351L424.594 833.253L418.265 829.177L412.293 818.78L405.557 798.718L398.804 771.221L392.027 732.57L388.585 689.078L388.495 648.181L392.863 605.787L397.638 579.38L404.268 551.109L410.54 529.16L419.408 503.859L426.802 485.253L435.312 466.273L448.637 439.475L454.934 428.679L466.047 410.065L482.724 385.862L502.005 362.025L520.919 340.791L541.322 320.298L559.505 304.271L589.199 281.898L623.725 259.143L653.061 243.091L670.146 234.874L692.062 226.275Z" fill="#7C7C7C"/>
</g>
</svg>
