<svg width="601" height="809" viewBox="0 0 601 809" fill="none" xmlns="http://www.w3.org/2000/svg">
<g opacity="0.15">
<path d="M288.977 48.6646H309.547L329.113 50.1697L341.154 51.6747L356.205 54.6849L368.245 57.6951L382.795 62.2104L400.856 69.2341L417.412 77.2613L429.453 84.285L437.48 89.302L447.012 95.8241L456.544 102.848L464.571 109.37L471.093 115.39L486.646 130.943L490.158 134.956L496.178 141.98L503.202 151.011L511.229 162.55L519.758 176.597L525.778 187.635L532.802 203.187L538.321 217.736L543.338 234.292L546.85 249.343L549.86 266.903L551.867 288.476L552.368 296.001V311.554L551.365 324.598L549.358 339.649L545.846 357.71L542.334 371.256L535.311 391.825L528.788 406.876L524.775 414.903L518.755 426.442L511.229 438.483L504.707 447.514L498.687 455.541L493.168 462.063L488.653 467.581L482.632 473.602L479.12 477.615L472.598 484.137L468.585 487.649L463.568 492.165L455.541 498.185L448.015 504.205L437.981 511.229L427.947 517.249L414.402 524.775L400.856 531.297L386.307 536.816L363.229 544.341L349.181 547.351L329.113 550.361L319.079 550.863L322.591 554.877L328.611 560.395L332.625 563.907L337.642 568.423L341.656 571.934L348.178 577.955L352.191 581.467L372.259 599.528L376.273 603.04L382.293 608.558L387.31 613.074L392.829 617.589L397.344 622.104L401.357 625.616L406.374 630.131L410.388 633.643L416.91 639.663L420.924 643.175L426.442 648.192L430.456 651.704L436.978 657.725L444.002 663.745L451.025 670.267L455.039 673.779L461.059 679.298L465.073 682.809L471.093 688.328L475.107 691.84L481.127 697.359L485.141 700.87L491.161 706.389L496.178 710.904L500.192 714.416L506.212 719.935L510.226 723.447L516.246 728.966L520.26 732.477L525.277 736.993L531.297 742.511L535.311 746.023L540.328 750.538L544.341 754.05L546.348 753.047L552.368 746.525L556.884 741.508L564.911 732.979L566.917 730.471V729.467L561.399 724.952L553.873 717.928L548.856 713.413L542.334 707.393L538.321 703.881L533.304 699.365L526.782 693.345L521.765 688.83L514.741 682.809L510.727 678.796L506.714 675.284L500.693 669.765L496.68 666.253L484.639 655.216L477.114 648.694L469.087 641.169L464.07 636.653L460.056 633.141L455.039 628.626L449.019 623.107L443.5 618.09L439.486 614.579L434.469 610.063L426.944 603.04L421.425 598.524L412.897 590.497L406.374 584.477L399.351 578.456L397.344 574.945L397.846 570.429L400.354 567.419L402.361 566.416H406.374L410.89 569.426L414.903 573.439L418.917 576.951L424.937 582.47L429.954 586.985L436.476 593.006L441.995 598.023L446.009 601.534L453.534 608.558L458.551 613.074L464.571 618.592L468.585 622.104L476.11 629.128L481.127 633.643L486.646 638.66L490.66 642.172L499.188 650.199L504.205 654.714L508.219 658.226L515.744 665.25L521.765 670.769L526.782 675.284L530.795 678.796L538.321 685.82L543.338 690.335L548.856 695.352L552.87 698.864L565.914 710.904L569.928 714.416L576.45 720.437L581.467 724.952L583.473 727.962L583.975 730.972L581.467 734.986L575.948 741.508L570.429 747.528L566.917 751.542L560.897 758.064L556.382 763.081L551.867 768.6L548.355 772.111L544.843 776.125L539.324 782.145L534.809 787.664L530.795 791.678L527.283 795.691L521.765 801.712L518.253 805.725L514.741 808.735L510.727 808.234L507.216 806.227L505.209 802.715V799.705L509.222 794.186L515.744 787.162L519.256 783.149L525.277 776.627L528.788 772.613L533.304 767.596L534.307 765.589L532.3 764.586L525.277 758.064L521.263 754.552L511.229 745.521L504.205 738.999L500.192 735.488L490.158 726.457L484.137 720.938L478.619 716.423L473.602 711.406L469.588 707.894L464.07 702.877L460.056 699.365L455.039 694.85L447.514 687.826L441.995 683.311L433.466 675.284L428.449 670.769L421.425 664.748L412.897 656.721L407.88 652.206L403.866 648.694L397.846 643.175L392.829 638.66L387.31 633.643L383.296 630.131L378.279 625.616L371.256 619.094L365.737 614.579L357.208 606.551L351.188 601.033L345.669 596.518L341.154 592.002L337.14 588.49L331.12 582.972L325.601 578.456L321.086 573.941L317.072 570.429L311.554 565.412L307.54 561.9L295.499 550.863L293.493 548.355L292.991 547.351V543.338L295.499 539.324L299.011 537.819L314.564 537.317L330.117 535.812L342.157 533.805L358.713 530.294L372.259 526.28L382.795 522.768L397.344 516.748L405.873 512.734L417.412 506.212L428.449 499.69L439.486 492.165L448.517 485.141L454.036 480.626L461.561 473.602L467.581 468.083L475.609 460.056L479.12 456.042L485.141 449.019L491.663 440.49L497.683 431.961L505.71 418.917L514.239 402.863L520.761 387.812L525.778 373.764L530.294 358.212L533.805 341.154L536.314 323.594L537.317 311.052V296.001L535.812 276.937L533.805 261.384L530.294 243.323L526.782 230.279L521.263 214.225L515.243 200.177L511.229 192.15L505.71 181.614L498.687 170.075L492.666 161.546L487.649 155.024L482.131 148.001L475.609 140.475L471.093 135.458L462.565 126.929L458.551 123.417L452.531 117.899L444.002 111.377L437.48 106.36L425.941 98.8343L413.9 91.8105L398.849 84.285L384.3 78.2647L366.239 72.2443L353.696 68.7324L340.652 66.224L325.1 64.2172L313.059 63.2138L303.527 62.7121H294.998L279.445 63.7155L262.387 65.7223L248.34 68.2307L233.289 72.2443L216.733 77.763L202.184 83.7833L188.638 90.3054L177.099 96.8275L167.567 102.848L159.038 108.868L152.516 113.885L146.997 118.4L140.977 123.919L136.963 127.431L126.929 137.465L123.417 141.478L117.899 147.499L112.38 154.523L107.363 161.045L97.3292 176.096L92.8139 183.621L84.2851 200.177L77.763 215.228L71.7427 233.289L67.7291 249.343L65.2206 262.387L63.2138 277.94L62.7121 284.964L62.7121 758.064L104.855 758.566L107.363 759.569L109.872 762.579L110.373 767.094L108.367 770.606L106.36 772.111L104.855 772.613L82.2783 773.115H10.0339L5.51867 772.613L2.50848 770.606L1.00339 768.6L0.501697 767.094L0 751.04L0 303.025L0.501697 297.506L4.01357 293.493L6.52206 292.489L11.0373 293.493L14.0475 297.005L14.5492 298.008L14.5492 758.566L48.1629 758.064L48.6646 280.95L50.1697 267.404L53.1799 249.845L57.1934 232.787L62.2104 216.733L67.7291 202.686L73.7494 189.641L80.2715 177.099L87.2953 165.56L94.8207 154.523L99.336 148.502L104.855 141.478L109.37 136.462L112.882 132.448L117.397 127.431L125.424 118.902L129.438 115.39L132.95 111.878L138.468 107.363L144.489 102.346L158.536 92.3122L168.57 85.7901L180.611 78.7664L192.15 72.746L202.184 68.2307L219.242 61.7087L234.292 57.1934L248.842 53.6815L262.889 51.1731L275.933 49.668L288.977 48.6646Z" fill="#F5F5F5"/>
<path d="M298.51 0L309.547 0L326.103 1.00339L340.15 2.50848L356.205 5.01697L371.757 8.52885L386.307 12.5424L399.852 17.0577L414.402 22.5764L427.947 28.5967L436.476 32.6103L446.008 37.6273L459.554 45.6544L465.575 49.668L475.609 56.6917L484.137 63.2138L492.165 69.7359L499.188 75.7562L506.714 82.78L512.734 88.2986L526.782 103.35L531.297 108.868L536.314 114.889L543.839 124.923L549.358 132.95L554.877 141.479L562.402 154.021L569.928 168.57L576.951 184.123L582.47 198.672L586.985 212.218L592.504 232.787L596.016 251.35L598.023 266.903L599.528 282.957L600.029 290.984V302.022L597.019 306.035L594.511 307.038L589.995 306.537L587.487 304.53L586.484 302.022L584.979 287.974L582.972 265.398L580.463 248.842L576.951 231.784L571.934 213.723L566.416 197.669L560.897 184.123L549.358 161.045L542.836 150.007L537.317 141.479L531.297 132.95L524.775 124.421L518.253 116.394L512.232 109.37L508.721 105.858L505.209 101.844L496.178 92.8139L492.165 89.302L486.646 84.2851L481.127 79.7698L474.104 74.2511L464.571 67.2274L446.51 55.1867L432.964 47.6612L421.927 42.1425L406.876 35.6205L392.327 30.1018L378.279 25.5865L360.218 21.0713L343.161 18.0611L331.12 16.556L312.055 15.0509L301.52 14.5492L297.005 14.0475L293.994 10.5356L293.493 6.52206L294.998 3.01018L297.506 0.501697L298.51 0Z" fill="#7C7C7C"/>
<path d="M494.673 292.991H499.188L501.697 294.496L503.704 297.004L504.205 298.008V310.55L502.7 326.605L500.192 341.154L496.68 356.205L491.663 371.256L486.144 384.3L480.626 395.839L472.598 409.385L467.581 416.91L461.561 424.937L457.046 430.456L451.025 437.48L436.476 452.029L430.958 456.544L426.944 460.056L418.917 466.076L411.391 471.093L402.361 476.612L391.324 482.632L374.768 490.158L361.222 494.673L346.672 498.687L331.622 501.697L320.584 503.202L302.021 504.205H175.092L171.58 502.7L169.574 500.192L168.57 497.683L169.072 493.67L171.58 490.66L173.587 489.656L310.55 489.154L327.106 487.649L340.652 485.141L352.693 482.131L371.757 475.609L384.801 469.588L394.334 464.571L405.371 457.548L410.89 453.534L419.419 447.012L424.937 442.497L431.459 436.476L440.991 426.944L445.507 421.425L450.524 415.405L457.046 406.374L461.561 399.351L468.083 387.812L475.107 373.262L480.124 359.717L484.137 345.669L486.646 333.628L488.653 319.079L489.656 305.032L490.158 298.51L491.663 295.499L494.673 292.991Z" fill="#F5F5F5"/>
<path d="M289.981 96.3258H303.025L306.537 99.336L307.039 100.339V105.858L304.53 108.868L300.516 110.373L277.94 112.38L264.394 114.387L249.343 117.899L236.299 121.912L224.259 126.929L211.716 132.95L201.18 138.97L190.645 145.994L182.618 152.014L175.092 158.536L171.079 162.048L158.536 174.59L154.021 180.109L146.997 189.14L138.97 201.18L133.953 209.709L127.933 221.248L123.919 230.781L119.404 243.323L115.892 256.367L112.882 271.92L111.377 285.466L110.875 299.513L109.37 304.028L106.36 306.537L102.346 307.038L99.336 305.533L97.3292 303.025L96.3258 298.008V288.977L97.3292 276.937L99.8377 260.381L104.353 242.32L109.872 225.764L117.397 209.208L122.916 199.174L129.438 188.638L134.956 180.611L141.98 171.58L147.499 165.058L153.519 158.536L162.55 149.506L166.563 145.994L173.587 139.973L183.621 132.448L194.658 125.424L205.194 119.404L216.231 113.885L225.764 109.872L240.815 104.855L257.872 100.339L271.92 97.8309L279.947 96.8275L289.981 96.3258Z" fill="#7C7C7C"/>
</g>
</svg>
