<svg width="1937" height="2245" viewBox="0 0 1937 2245" fill="none" xmlns="http://www.w3.org/2000/svg">
<g opacity="0.03">
<path d="M678.28 340.142L723.977 324.798L768.567 313.546L796.438 307.908L832.12 303.368L861.115 301.073L896.805 300.251L942.168 302.382L984.936 307.865L1016.92 314.486L1038.5 319.644L1064.54 327.022L1090.96 335.515L1113.65 344.017L1132.63 352.526L1178.79 375.475L1189.58 381.772L1208.2 392.885L1230.54 407.707L1256.98 427.354L1286.4 452.199L1308.01 472.228L1335.22 501.54L1358.33 529.745L1381.82 562.782L1400.85 593.599L1420.64 630.363L1441.19 676.791L1447.92 693.135L1459.52 727.686L1467.02 757.413L1473.79 792.346L1479.46 835.089L1481.76 867.802L1481.5 918.738L1478.24 957.039L1475.31 977.866L1470.55 1007.99L1462.81 1040.35L1455.06 1065.28L1447.67 1087.6L1440.28 1106.21L1434.36 1121.84L1425.48 1139.7L1420.67 1151.24L1411.05 1170.59L1404.75 1181.39L1396.97 1195.16L1383.63 1214.53L1371.4 1233.51L1354.35 1256.6L1336.55 1277.46L1312.07 1304.28L1286.85 1328.88L1258.64 1351.99L1212.98 1385.92L1184.02 1403.09L1141.69 1424.75L1119.77 1433.35L1130.57 1439.64L1148.06 1447.41L1159.59 1452.22L1174.11 1458.51L1185.64 1463.32L1204.62 1471.83L1216.16 1476.63L1274.21 1501.79L1285.75 1506.6L1303.24 1514.37L1317.75 1520.65L1333.38 1526.57L1346.78 1533.23L1358.32 1538.04L1372.83 1544.33L1384.37 1549.14L1403.35 1557.64L1414.88 1562.45L1430.89 1569.48L1442.42 1574.29L1461.4 1582.8L1481.5 1590.93L1501.97 1600.18L1513.5 1604.99L1530.99 1612.76L1542.53 1617.57L1560.02 1625.34L1571.56 1630.15L1589.05 1637.91L1600.58 1642.72L1618.07 1650.49L1632.59 1656.78L1644.12 1661.59L1661.62 1669.36L1673.15 1674.16L1690.64 1681.93L1702.18 1686.74L1716.69 1693.03L1734.18 1700.8L1745.72 1705.61L1760.23 1711.9L1771.77 1716.7L1775.48 1712.98L1783.99 1694L1790.28 1679.48L1801.75 1654.55L1804.33 1647.48L1803.59 1645.25L1787.96 1639.34L1766 1629.35L1751.49 1623.06L1732.51 1614.55L1720.97 1609.74L1706.46 1603.45L1687.48 1594.94L1672.96 1588.65L1652.87 1580.52L1640.96 1574.6L1629.42 1569.79L1611.93 1562.02L1600.4 1557.21L1565.41 1541.67L1543.83 1532.8L1520.38 1522.07L1505.87 1515.78L1494.33 1510.97L1479.82 1504.68L1462.33 1496.91L1446.33 1489.88L1434.79 1485.08L1420.28 1478.79L1398.32 1468.8L1382.69 1462.88L1357.76 1451.41L1338.78 1442.9L1318.68 1434.77L1311.6 1428.46L1309.35 1418.06L1312.68 1409.5L1316.39 1405.77L1325.3 1402.78L1337.58 1406.1L1349.49 1412.02L1361.03 1416.83L1378.52 1424.6L1393.03 1430.89L1412.01 1439.4L1428.01 1446.43L1439.55 1451.23L1461.51 1461.22L1476.02 1467.51L1493.51 1475.28L1505.05 1480.09L1527 1490.08L1541.52 1496.37L1557.52 1503.4L1569.06 1508.2L1593.99 1519.67L1608.51 1525.96L1620.04 1530.77L1642 1540.76L1659.49 1548.53L1674 1554.82L1685.54 1559.63L1707.5 1569.62L1722.01 1575.9L1738.01 1582.93L1749.55 1587.74L1787.51 1604.76L1799.05 1609.57L1818.03 1618.08L1832.54 1624.37L1839.24 1629.56L1842.6 1635.87L1840.02 1646.66L1832.63 1665.26L1824.86 1682.75L1820.05 1694.29L1811.54 1713.27L1805.26 1727.78L1799.34 1743.41L1794.16 1753.83L1789.35 1765.37L1781.58 1782.86L1775.67 1798.49L1769.75 1810.4L1764.94 1821.94L1757.17 1839.43L1752.36 1850.96L1746.8 1860.27L1737.51 1862.15L1728.21 1860.31L1721.14 1854.01L1718.89 1847.32L1723.69 1832.06L1732.94 1811.6L1737.75 1800.06L1746.26 1781.08L1751.07 1769.54L1757.35 1755.03L1758.09 1749.82L1752.88 1749.09L1732.41 1739.84L1720.87 1735.03L1691.85 1722.46L1671.38 1713.21L1659.84 1708.4L1630.82 1695.82L1613.32 1688.05L1597.7 1682.14L1582.81 1674.74L1571.27 1669.93L1555.27 1662.9L1543.73 1658.09L1529.22 1651.8L1507.26 1641.81L1491.63 1635.9L1466.7 1624.43L1452.19 1618.14L1432.09 1610L1407.16 1598.53L1392.64 1592.24L1381.11 1587.44L1363.61 1579.67L1349.1 1573.38L1333.1 1566.35L1321.56 1561.54L1307.05 1555.25L1286.58 1546L1270.95 1540.09L1246.02 1528.62L1228.53 1520.85L1212.9 1514.94L1199.5 1508.27L1187.96 1503.47L1170.47 1495.7L1154.84 1489.78L1141.44 1483.12L1129.91 1478.31L1113.9 1471.28L1102.37 1466.48L1067.39 1450.94L1061.06 1446.86L1059.19 1445.01L1056.2 1436.09L1058.78 1425.3L1065.46 1419.34L1099.63 1406.62L1133.06 1391.68L1158.31 1378.24L1192.48 1358.09L1219.57 1339.06L1240.36 1323.4L1268.19 1299.18L1284.14 1283.9L1304.91 1260.8L1324.57 1238.08L1343.47 1213.13L1358.3 1190.79L1367.19 1176.64L1378.67 1155.42L1387.93 1138.67L1399.77 1114.85L1404.58 1103.31L1412.71 1083.22L1420.84 1059.41L1427.85 1035.97L1435.96 1001L1442.93 958.976L1446.19 920.674L1446.86 885.725L1445.28 847.806L1440.36 807.291L1432.84 766.411L1425.71 737.799L1414.48 704.362L1396.92 663.132L1380.86 630.079L1359.58 592.575L1342.05 566.216L1317.82 534.667L1293.96 507.951L1279.06 493.112L1258.94 473.823L1234.73 453.428L1214.99 438.972L1198.98 428.225L1181.48 416.738L1161.38 404.885L1147.6 397.108L1122.29 384.523L1110.76 379.715L1093.27 371.946L1069.46 363.819L1051.22 357.539L1019.98 349.428L987.987 342.806L948.937 337.315L912.124 334.794L867.51 334.892L837.026 336.446L806.177 340.604L770.129 347.747L742.631 354.5L721.081 360.496L702.134 366.858L668.331 380.689L631.933 397.871L602.597 413.923L572.155 434.066L539.492 458.676L511.661 482.904L486.433 507.498L465.664 530.594L448.978 551.079L434.522 570.816L423.775 586.827L414.883 600.974L405.626 617.725L399.329 628.521L384.523 658.297L379.715 669.833L371.946 687.324L364.925 707.044L358.645 725.276L347.581 766.197L343.164 786.283L336.567 829.426L333.305 867.727L333.403 912.342L336.463 951.001L340.62 981.851L347.764 1017.9L351.888 1033.88L704.799 2084.89L798.796 2054.57L805.117 2054.93L812.935 2059.75L817.418 2069.4L815.579 2078.7L812.244 2083.54L809.274 2085.78L759.494 2103.73L598.999 2157.62L588.594 2159.88L580.41 2157.67L575.569 2154.33L573.332 2151.36L560.242 2116.07L226.043 1120.78L223.041 1108.15L227.849 1096.61L232.673 1092.51L243.452 1091.37L252.759 1096.93L254.622 1098.78L598.177 2121.93L672.478 2095.75L317.687 1035.44L310.926 1004.22L304.515 962.969L300.707 922.08L299.877 882.672L301.658 847.348L305.302 813.879L310.435 781.15L317.431 750.276L325.916 720.143L331.456 703.4L338.477 683.68L344.765 669.166L349.573 657.63L355.862 643.116L367.332 618.181L373.629 607.385L378.811 596.964L387.703 582.816L397.335 567.18L421.057 534.41L438.483 512.436L459.993 487.851L481.136 465.869L500.059 448.353L533.089 421.14L563.157 399.881L592.859 381.227L622.195 365.175L650.05 352.101L678.28 340.142Z" fill="#F5F5F5"/>
<path d="M663.155 224.92L687.675 216.687L725.203 206.566L757.534 199.431L795.07 193.028L832.241 189.228L867.557 187.291L901.018 187.218L937.456 188.624L972.04 191.894L993.981 194.449L1018.9 198.484L1054.98 206.212L1071.35 210.637L1098.88 218.756L1122.69 226.883L1145.39 235.384L1165.48 243.519L1187.44 253.509L1204.93 261.278L1247.37 284.236L1261.52 293.128L1277.15 302.76L1301.35 319.437L1319.6 333.153L1338.22 347.984L1364.3 370.234L1391.87 396.942L1419.08 426.254L1442.19 454.459L1462.32 481.183L1489.93 522.763L1511.58 561.381L1527.64 594.435L1542.96 628.978L1550.06 646.437L1558.29 670.957L1554.6 682.118L1549.77 686.219L1539.37 688.472L1532.3 685.885L1528.2 681.061L1514.38 650.977L1493.08 602.319L1475.15 567.41L1454.63 532.135L1430.01 495.754L1405.77 464.205L1383.41 438.229L1340.56 395.568L1317.84 375.913L1299.22 361.082L1279.48 346.626L1258.63 332.544L1238.15 319.576L1219.54 308.464L1209.11 303.281L1198.32 296.985L1171.52 283.659L1159.98 278.851L1143.98 271.823L1128.35 265.908L1108.63 258.888L1082.22 250.395L1033.11 237.118L997.406 230.505L968.77 226.478L930.468 223.216L894.03 221.809L859.454 222.257L815.962 225.699L775.822 231.736L747.95 237.374L704.475 248.252L680.695 254.996L670.29 257.25L660.983 251.694L656.875 243.152L657.599 234.227L661.3 226.783L663.155 224.92Z" fill="#7C7C7C"/>
<path d="M1317.5 729.486L1327.53 726.118L1334.23 727.59L1340.56 731.666L1342.42 733.521L1351.77 761.384L1360.41 798.173L1365.69 832.366L1369.11 868.422L1369.19 905.601L1366.66 938.695L1363.01 968.447L1355.28 1004.53L1349.75 1024.99L1342.37 1047.31L1336.45 1062.94L1328.32 1083.03L1306.85 1126.21L1297.96 1140.36L1291.66 1151.15L1278.32 1170.51L1265.34 1187.27L1249.4 1206.27L1229.37 1227.88L1198.2 1256.95L1171.48 1277.08L1142.15 1296.85L1110.96 1314.77L1087.56 1326.34L1047.07 1342.42L765.091 1437.1L756.166 1436.38L749.837 1432.3L745.736 1427.48L743.857 1418.19L747.184 1409.63L750.894 1405.9L1054.79 1302.62L1090.45 1286.93L1118.67 1271.25L1143.17 1255.58L1180.66 1226.87L1205.15 1203.77L1222.58 1185.51L1241.86 1161.67L1251.13 1148.64L1265.21 1127.79L1274.1 1113.64L1284.1 1095.4L1298.17 1067.11L1304.08 1051.49L1310.74 1034.37L1318.49 1009.44L1323.28 990.47L1329.16 959.97L1333.91 922.409L1334.95 888.574L1333.39 854.372L1329.98 825.752L1323.59 791.933L1315.34 759.977L1311.59 745.114L1312.68 737.304L1317.5 729.486Z" fill="#F5F5F5"/>
<path d="M716.062 445.275L745.041 435.545L755.088 439.612L756.951 441.467L761.068 453.727L757.74 462.286L749.947 468.623L701.289 489.922L672.693 504.485L641.877 523.514L615.892 542.161L592.886 562.288L569.513 585.019L550.598 606.252L532.432 629.715L519.091 649.078L507.237 669.18L500.941 679.976L482.433 717.196L476.519 732.824L467.652 758.125L458.801 790.862L454.018 813.552L449.251 843.677L447.445 867.848L446.77 899.08L448.698 930.677L453.613 967.474L460.374 998.689L469.738 1030.27L469.762 1041.42L464.946 1049.24L456.404 1053.35L448.594 1052.25L442.265 1048.18L436.293 1037.78L429.557 1017.72L422.804 990.221L416.027 951.57L412.585 908.078L412.495 867.181L416.863 824.787L421.638 798.38L428.268 770.109L434.541 748.16L443.408 722.859L450.803 704.253L459.312 685.273L472.637 658.475L478.934 647.679L490.047 629.065L506.724 604.862L526.005 581.025L544.919 559.791L565.323 539.298L583.505 523.271L613.199 500.898L647.725 478.143L677.061 462.091L694.146 453.874L716.062 445.275Z" fill="#7C7C7C"/>
</g>
</svg>
